<?xml version="1.0" encoding="UTF-8" standalone="no"?>
<!DOCTYPE svg PUBLIC "-//W3C//DTD SVG 1.1//EN" "http://www.w3.org/Graphics/SVG/1.1/DTD/svg11.dtd">
<svg width="100%" height="100%" viewBox="0 0 244 244" version="1.1" xmlns="http://www.w3.org/2000/svg" xmlns:xlink="http://www.w3.org/1999/xlink" xml:space="preserve" xmlns:serif="http://www.serif.com/" style="fill-rule:evenodd;clip-rule:evenodd;stroke-linejoin:round;stroke-miterlimit:2;">
    <rect id="__micon_black_fill" x="0" y="0" width="244" height="244"/>
    <path id="__micon_background" d="M244,46.36C244,20.773 223.227,0 197.64,0L46.36,0C20.773,0 -0,20.773 -0,46.36L-0,197.64C-0,223.227 20.773,244 46.36,244L197.64,244C223.227,244 244,223.227 244,197.64L244,46.36Z" style="fill:rgb(42,152,189);"/>
    <path id="__micon_gradient_overlay" d="M244,46.36C244,20.773 223.227,0 197.64,0L46.36,0C20.773,0 -0,20.773 -0,46.36L-0,197.64C-0,223.227 20.773,244 46.36,244L197.64,244C223.227,244 244,223.227 244,197.64L244,46.36Z" style="fill:url(#__micon_def_radial_gradient);"/>
    <path id="__micon_border" d="M244,46.36C244,20.773 223.227,0 197.64,0L46.36,0C20.773,0 -0,20.773 -0,46.36L-0,197.64C-0,223.227 20.773,244 46.36,244L197.64,244C223.227,244 244,223.227 244,197.64L244,46.36ZM234.305,46.36L234.305,197.64C234.305,217.876 217.876,234.305 197.64,234.305L46.36,234.305C26.124,234.305 9.695,217.876 9.695,197.64L9.695,46.36C9.695,26.124 26.124,9.695 46.36,9.695L197.64,9.695C217.876,9.695 234.305,26.124 234.305,46.36Z" style="fill:white;fill-opacity:0.2;"/>
    <g id="__micon_glyph"  transform="matrix(1,0,0,1,-10,-8)">
        <path d="M75.75,40C57.11,40 42,55.11 42,73.75C42,80.412 43.994,86.582 47.326,91.813L98.619,49.063C92.906,43.485 84.926,40 75.75,40ZM188.25,40C179.394,40 171.4,43.485 165.377,49.067L216.67,91.817C220.312,86.582 222,80.395 222,73.75C222,55.11 207.199,40 188.25,40ZM132.316,62.5C88.828,62.5 53.566,97.762 53.566,141.25C53.566,159.957 60.116,177.109 71.011,190.609L56.038,205.582C54.389,207.238 53.566,209.418 53.566,211.563C53.566,216.063 57.187,220 62.004,220C64.163,220 66.321,219.176 67.97,217.528L82.943,202.555C96.141,213.461 113.613,220 132.316,220C151.02,220 168.176,213.45 181.676,202.555L196.649,217.529C198.305,219.191 200.484,220 202.629,220C207.449,220 211.066,216.059 211.066,211.563C211.066,209.404 210.242,207.245 208.595,205.596L193.622,190.623C204.516,177.113 211.066,159.957 211.066,141.264C210.75,97.762 175.805,62.5 132.316,62.5ZM132.316,203.125C98.197,203.125 70.441,175.369 70.441,141.25C70.441,107.131 97.898,79.375 132.316,79.375C166.734,79.375 194.191,107.131 194.191,141.25C194.191,175.369 166.418,203.125 132.316,203.125ZM140.754,142.656L140.754,104.688C140.754,100.029 136.975,96.25 132.316,96.25C127.658,96.25 123.879,100.047 123.879,104.688L123.879,146.875C123.879,149.534 125.132,152.029 127.252,153.621L149.752,170.496C151.266,171.625 152.742,172.188 154.5,172.188C159.141,172.188 162.945,168.44 162.945,163.757C162.945,161.192 161.779,158.659 159.571,157.007L140.754,142.656Z" style="fill:white;fill-rule:nonzero;"/>
    </g>
    <defs>
        <radialGradient id="__micon_def_radial_gradient" cx="0" cy="0" r="1" gradientUnits="userSpaceOnUse" gradientTransform="matrix(7.47035e-15,-122,122,7.47035e-15,122,122)"><stop offset="0" style="stop-color:white;stop-opacity:0.2"/><stop offset="1" style="stop-color:black;stop-opacity:0.25"/></radialGradient>
    </defs>
</svg>
